<svg width="83" height="26" viewBox="0 0 83 26" fill="none" xmlns="http://www.w3.org/2000/svg">
<path d="M11.952 25.2341H6.552V7.81007H0.36V4.10207H1.368C2.784 4.10207 3.936 3.88607 4.824 3.45407C5.712 3.02207 6.444 2.24207 7.02 1.11407H11.952V25.2341ZM26.3545 25.5941C22.5145 25.5941 19.5385 24.4781 17.4265 22.2461C15.3385 20.0141 14.2945 16.9901 14.2945 13.1741C14.2945 9.35807 15.3505 6.33407 17.4625 4.10207C19.5745 1.87007 22.5385 0.75407 26.3545 0.75407C30.1705 0.75407 33.1345 1.88207 35.2465 4.13807C37.3585 6.37007 38.4145 9.38207 38.4145 13.1741C38.4145 16.9901 37.3585 20.0141 35.2465 22.2461C33.1345 24.4781 30.1705 25.5941 26.3545 25.5941ZM26.3545 20.3381C28.6345 20.3381 30.2425 19.7981 31.1785 18.7181C32.1385 17.6141 32.6185 15.7661 32.6185 13.1741C32.6185 10.5821 32.1385 8.74607 31.1785 7.66607C30.2425 6.56207 28.6345 6.01007 26.3545 6.01007C24.0505 6.01007 22.4305 6.56207 21.4945 7.66607C20.5585 8.74607 20.0905 10.5821 20.0905 13.1741C20.0905 15.7661 20.5585 17.6141 21.4945 18.7181C22.4305 19.7981 24.0505 20.3381 26.3545 20.3381ZM46.1095 25.2341H40.7095V1.11407H46.1095V10.6901H52.1215L58.5295 1.11407H65.0095L56.6215 12.9941L64.9015 25.2341H58.4215L52.1935 15.9461H46.1095V25.2341ZM76.4536 21.2021H71.8096V15.4061H66.0856V10.9421H71.8096V5.14607H76.4536V10.9421H82.1776V15.4061H76.4536V21.2021Z" fill="white"/>
</svg>
