<?xml version="1.0" encoding="utf-8"?>
<!-- Generator: Adobe Illustrator 25.4.1, SVG Export Plug-In . SVG Version: 6.00 Build 0)  -->
<svg version="1.0" id="katman_1" xmlns="http://www.w3.org/2000/svg" xmlns:xlink="http://www.w3.org/1999/xlink" x="0px" y="0px"
	 viewBox="0 0 207.9 145.4" style="enable-background:new 0 0 207.9 145.4;" xml:space="preserve">
<style type="text/css">
	.st0{fill-rule:evenodd;clip-rule:evenodd;fill:#030304;}
</style>
<g id="system">
	<g id="pc_x2F_header" transform="translate(-360.000000, -21.000000)">
		<g id="编组" transform="translate(360.000000, 21.728395)">
			<path id="形状结合" class="st0" d="M72.8,75.2v2.5c0,7-10.2,11-13.3,12l0,0l-1.1,0.4v-4.3l0.6-0.2c4.9-1.8,9.8-4.9,9.8-7.9
				l0,0v-2.5H72.8z M57.3,54.7l4.2,1.3v4.4l-4.2-1.3l-0.3,0.1v9.9h4.4v4.1h-4.4v16.8l-1.2-0.4c-0.5-0.2-1.4-0.5-2.5-1l0,0l-0.5-0.2
				V56.1L57.3,54.7z M51.6,56.5v4.4L46,62.6v6.5h5.7v18.9l-1.3-0.6c-3.9-2-8.5-5.3-8.5-10l0,0v-2.2H46v2.2c0,1,0.5,2,1.5,3l0,0v-7.2
				h-5.7V59.5L51.6,56.5z M62.8,56.4l10,3.1v13.8h-5.9v6c0,0-1.3,1.7-4.1,3.1c0-0.8,0-12.9,0-20.3L62.8,56.4z M141.4,62.7
				c3.4,0,6.2,2.7,6.3,6.1c0,3.4-2.8,6.2-6.2,6.2l-4,0l0,6.9l-3.2,0l-0.1-19.2L141.4,62.7z M126.2,68.6c3.7,0,6.7,3,6.7,6.6
				c0,0.6-0.1,1.1-0.2,1.7l-9.5,0c0.6,1.1,1.7,1.8,3,1.8c0.6,0,1.2-0.2,1.7-0.4v0l3.5,1.1c-1.2,1.5-3.1,2.5-5.3,2.5
				c-3.7,0-6.7-3-6.7-6.6S122.4,68.6,126.2,68.6z M118.8,62.7v3.2H118c-1.2,0-2.2,1-2.3,2.2l0,0.5h3.1v3.2h-3.1v10.1h-3.2V71.8H111
				v-3.2h1.5v-1.1c0-2.7,2.2-4.8,4.9-4.8H118.8z M103,68.6C103,68.6,103,68.6,103,68.6c0.1,0,0.2,0,0.3,0c1.2,0.1,2.4,0.4,3.3,1.1
				l3.1-1v13.2h-3.2v-1c-0.2,0.1-0.4,0.2-0.6,0.3v0c-0.3,0.2-0.7,0.3-1,0.4l-0.1,0l0,0c-0.1,0-0.2,0-0.2,0.1l-0.1,0l0,0
				c-0.1,0-0.1,0-0.2,0c-0.1,0-0.1,0-0.2,0c-0.1,0-0.1,0-0.2,0c-0.1,0-0.1,0-0.2,0c-0.1,0-0.2,0-0.2,0c0,0-0.1,0-0.1,0
				c-0.1,0-0.2,0-0.4,0c-1.5,0-2.9-0.5-4-1.3c-0.3-0.2-0.5-0.4-0.7-0.6c-0.2-0.2-0.4-0.5-0.6-0.7c-0.8-1-1.3-2.3-1.3-3.7
				c0-0.1,0-0.2,0-0.3v0C96.3,71.6,99.3,68.6,103,68.6L103,68.6z M154,68.6C154,68.6,154,68.6,154,68.6c0.1,0,0.2,0,0.3,0
				c1.2,0.1,2.4,0.4,3.3,1.1l3.1-1v13.2h-3.2v-1c-0.2,0.1-0.4,0.2-0.6,0.3v0c-0.3,0.2-0.7,0.3-1,0.4l-0.1,0l0,0
				c-0.1,0-0.2,0-0.2,0.1l-0.1,0l0,0c-0.1,0-0.1,0-0.2,0c-0.1,0-0.1,0-0.2,0c-0.1,0-0.1,0-0.2,0c-0.1,0-0.1,0-0.2,0
				c-0.1,0-0.2,0-0.2,0c0,0-0.1,0-0.1,0c-0.1,0-0.2,0-0.4,0c-1.5,0-2.9-0.5-4-1.3c-0.3-0.2-0.5-0.4-0.7-0.6
				c-0.2-0.2-0.4-0.5-0.6-0.7c-0.8-1-1.3-2.3-1.3-3.7c0-0.1,0-0.2,0-0.3v0C147.3,71.6,150.3,68.6,154,68.6L154,68.6z M165.3,62.8
				v19.1H162V63.8L165.3,62.8z M87.8,62.7c3.1,0,5.4,1.6,6.7,4.1c-2,0.7-3.2,1-3.5,1.1c-0.7-1-1.6-1.7-3.2-1.7
				c-1.5,0-2.5,0.8-2.5,1.8c0,1.1,0.7,1.7,3.5,2.6c3,0.9,6.1,1.9,6.1,5.7c0,3.5-2.8,5.6-6.8,5.6c-3.8,0-6.3-1.8-7.3-4.6
				c1.5-0.5,2.6-0.8,3.5-1c0.7,1.3,2,2,3.9,2c2.2,0,3-0.9,3-2c0-1.4-1.3-1.9-4-2.7c-2.9-0.8-5.6-2-5.6-5.5
				C81.6,64.7,84.6,62.7,87.8,62.7z M102.9,71.7c-2,0-3.6,1.6-3.6,3.5c0,1.9,1.6,3.5,3.6,3.5c2,0,3.6-1.6,3.6-3.5
				C106.5,73.3,104.9,71.7,102.9,71.7z M153.9,71.7c-2,0-3.6,1.6-3.6,3.5c0,1.9,1.6,3.5,3.6,3.5c2,0,3.6-1.6,3.6-3.5
				C157.5,73.3,155.9,71.7,153.9,71.7z M126.2,71.8c-1.4,0-2.6,0.8-3.1,1.9h6.3C128.7,72.6,127.5,71.8,126.2,71.8z M141.4,65.9l-4,0
				l0,5.9l4,0c1.7,0,3-1.3,3-3C144.4,67.3,143,65.9,141.4,65.9L141.4,65.9z M66.9,62v7.1h1.8v-6.6L66.9,62z"/>
		</g>
	</g>
</g>
</svg>
