<svg width="118" height="26" viewBox="0 0 118 26" fill="none" xmlns="http://www.w3.org/2000/svg">
<path d="M22.248 25.2341H0.828V21.7781C0.828 19.6421 1.344 17.9621 2.376 16.7381C3.408 15.5141 5.196 14.4821 7.74 13.6421L13.932 11.6261C15.036 11.2421 15.804 10.8341 16.236 10.4021C16.668 9.94607 16.884 9.33407 16.884 8.56607C16.884 7.58207 16.524 6.86207 15.804 6.40607C15.084 5.92607 13.788 5.68607 11.916 5.68607C9.78 5.68607 8.28 6.01007 7.416 6.65807C6.576 7.28207 6.156 8.29007 6.156 9.68207V10.1501H0.864V9.68207C0.864 7.11407 1.788 4.99007 3.636 3.31007C5.508 1.60607 8.328 0.75407 12.096 0.75407C15.576 0.75407 18.144 1.46207 19.8 2.87807C21.48 4.29407 22.32 6.21407 22.32 8.63807C22.32 10.6781 21.708 12.2981 20.484 13.4981C19.26 14.6981 17.508 15.6101 15.228 16.2341L9.972 17.6741C8.724 18.0581 7.836 18.4781 7.308 18.9341C6.78 19.3901 6.516 20.0741 6.516 20.9861L12.816 20.3741H22.248V25.2341ZM36.128 25.5941C32.288 25.5941 29.312 24.4781 27.2 22.2461C25.112 20.0141 24.068 16.9901 24.068 13.1741C24.068 9.35807 25.124 6.33407 27.236 4.10207C29.348 1.87007 32.312 0.75407 36.128 0.75407C39.944 0.75407 42.908 1.88207 45.02 4.13807C47.132 6.37007 48.188 9.38207 48.188 13.1741C48.188 16.9901 47.132 20.0141 45.02 22.2461C42.908 24.4781 39.944 25.5941 36.128 25.5941ZM36.128 20.3381C38.408 20.3381 40.016 19.7981 40.952 18.7181C41.912 17.6141 42.392 15.7661 42.392 13.1741C42.392 10.5821 41.912 8.74607 40.952 7.66607C40.016 6.56207 38.408 6.01007 36.128 6.01007C33.824 6.01007 32.204 6.56207 31.268 7.66607C30.332 8.74607 29.864 10.5821 29.864 13.1741C29.864 15.7661 30.332 17.6141 31.268 18.7181C32.204 19.7981 33.824 20.3381 36.128 20.3381ZM62.003 25.5941C58.163 25.5941 55.187 24.4781 53.075 22.2461C50.987 20.0141 49.943 16.9901 49.943 13.1741C49.943 9.35807 50.999 6.33407 53.111 4.10207C55.223 1.87007 58.187 0.75407 62.003 0.75407C65.819 0.75407 68.783 1.88207 70.895 4.13807C73.007 6.37007 74.063 9.38207 74.063 13.1741C74.063 16.9901 73.007 20.0141 70.895 22.2461C68.783 24.4781 65.819 25.5941 62.003 25.5941ZM62.003 20.3381C64.283 20.3381 65.891 19.7981 66.827 18.7181C67.787 17.6141 68.267 15.7661 68.267 13.1741C68.267 10.5821 67.787 8.74607 66.827 7.66607C65.891 6.56207 64.283 6.01007 62.003 6.01007C59.699 6.01007 58.079 6.56207 57.143 7.66607C56.207 8.74607 55.739 10.5821 55.739 13.1741C55.739 15.7661 56.207 17.6141 57.143 18.7181C58.079 19.7981 59.699 20.3381 62.003 20.3381ZM81.758 25.2341H76.358V1.11407H81.758V10.6901H87.77L94.178 1.11407H100.658L92.27 12.9941L100.55 25.2341H94.07L87.842 15.9461H81.758V25.2341ZM112.102 21.2021H107.458V15.4061H101.734V10.9421H107.458V5.14607H112.102V10.9421H117.826V15.4061H112.102V21.2021Z" fill="white"/>
</svg>
