<svg width="116" height="26" viewBox="0 0 116 26" fill="none" xmlns="http://www.w3.org/2000/svg">
<path d="M21.24 25.2341H15.84V20.6261H0.54V16.9541L14.976 1.11407H21.24V15.7661H24.912V20.6261H21.24V25.2341ZM8.064 15.7661H15.84V7.34207H15.444L8.064 15.3701V15.7661ZM37.766 25.5941C33.902 25.5941 31.022 24.8621 29.126 23.3981C27.254 21.9101 26.318 19.7981 26.318 17.0621V16.4861H32.042V17.0621C32.042 18.3581 32.378 19.2461 33.05 19.7261C33.746 20.1821 35.234 20.4101 37.514 20.4101C39.77 20.4101 41.318 20.2061 42.158 19.7981C43.022 19.3901 43.454 18.6581 43.454 17.6021C43.454 15.8981 42.314 15.0461 40.034 15.0461H33.086V10.6181H39.53C41.546 10.6181 42.554 9.86207 42.554 8.35007C42.554 7.46207 42.194 6.83807 41.474 6.47807C40.778 6.11807 39.434 5.93807 37.442 5.93807C35.33 5.93807 33.902 6.19007 33.158 6.69407C32.414 7.17407 32.042 8.03807 32.042 9.28607V9.46607H26.318V9.28607C26.318 6.67007 27.29 4.59407 29.234 3.05807C31.202 1.52207 34.094 0.75407 37.91 0.75407C41.15 0.75407 43.622 1.30607 45.326 2.41007C47.054 3.49007 47.918 5.08607 47.918 7.19807C47.918 8.59007 47.51 9.73007 46.694 10.6181C45.878 11.5061 44.69 12.0461 43.13 12.2381V12.6341C47.018 13.1861 48.962 15.1301 48.962 18.4661C48.962 20.7701 47.978 22.5341 46.01 23.7581C44.066 24.9821 41.318 25.5941 37.766 25.5941ZM71.8183 25.2341H50.3983V21.7781C50.3983 19.6421 50.9143 17.9621 51.9463 16.7381C52.9783 15.5141 54.7663 14.4821 57.3103 13.6421L63.5023 11.6261C64.6063 11.2421 65.3743 10.8341 65.8063 10.4021C66.2383 9.94607 66.4543 9.33407 66.4543 8.56607C66.4543 7.58207 66.0943 6.86207 65.3743 6.40607C64.6543 5.92607 63.3583 5.68607 61.4863 5.68607C59.3503 5.68607 57.8503 6.01007 56.9863 6.65807C56.1463 7.28207 55.7263 8.29007 55.7263 9.68207V10.1501H50.4343V9.68207C50.4343 7.11407 51.3583 4.99007 53.2063 3.31007C55.0783 1.60607 57.8983 0.75407 61.6663 0.75407C65.1463 0.75407 67.7143 1.46207 69.3703 2.87807C71.0503 4.29407 71.8903 6.21407 71.8903 8.63807C71.8903 10.6781 71.2783 12.2981 70.0543 13.4981C68.8303 14.6981 67.0783 15.6101 64.7983 16.2341L59.5423 17.6741C58.2943 18.0581 57.4063 18.4781 56.8783 18.9341C56.3503 19.3901 56.0863 20.0741 56.0863 20.9861L62.3863 20.3741H71.8183V25.2341ZM79.5783 25.2341H74.1783V1.11407H79.5783V10.6901H85.5903L91.9983 1.11407H98.4783L90.0903 12.9941L98.3703 25.2341H91.8903L85.6623 15.9461H79.5783V25.2341ZM109.922 21.2021H105.278V15.4061H99.5543V10.9421H105.278V5.14607H109.922V10.9421H115.646V15.4061H109.922V21.2021Z" fill="white"/>
</svg>
